<?xml version="1.0" encoding="UTF-8"?>
<svg id="Layer_1" data-name="Layer 1" xmlns="http://www.w3.org/2000/svg" xmlns:xlink="http://www.w3.org/1999/xlink" viewBox="0 0 885.16 303.35">
  <defs>
    <style>
      .cls-1 {
        fill: url(#New_Gradient_Swatch_2-10);
      }

      .cls-2 {
        fill: url(#New_Gradient_Swatch_2-11);
      }

      .cls-3 {
        fill: url(#linear-gradient);
      }

      .cls-4 {
        fill: url(#New_Gradient_Swatch_2-6);
      }

      .cls-4, .cls-5, .cls-6, .cls-7, .cls-8 {
        stroke-width: 0px;
      }

      .cls-5 {
        fill: url(#New_Gradient_Swatch_2-3);
      }

      .cls-6 {
        fill: #48484a;
      }

      .cls-9 {
        clip-path: url(#clippath-4);
      }

      .cls-10 {
        fill: url(#New_Gradient_Swatch_2);
      }

      .cls-7 {
        fill: #231f20;
      }

      .cls-11 {
        fill: url(#linear-gradient-2);
      }

      .cls-8 {
        fill: #414042;
      }

      .cls-12 {
        fill: url(#New_Gradient_Swatch_2-9);
      }

      .cls-13 {
        fill: url(#New_Gradient_Swatch_2-5);
      }

      .cls-14 {
        fill: url(#New_Gradient_Swatch_2-2);
      }

      .cls-15 {
        fill: url(#New_Gradient_Swatch_2-4);
      }

      .cls-16 {
        fill: url(#New_Gradient_Swatch_2-8);
      }

      .cls-17 {
        fill: url(#New_Gradient_Swatch_2-7);
      }
    </style>
    <linearGradient id="New_Gradient_Swatch_2" data-name="New Gradient Swatch 2" x1="114.56" y1="0" x2="114.56" y2="220.38" gradientUnits="userSpaceOnUse">
      <stop offset="0" stop-color="#4d4d4f"/>
      <stop offset=".02" stop-color="#4d4d4f"/>
      <stop offset=".36" stop-color="#383637"/>
      <stop offset=".73" stop-color="#282526"/>
      <stop offset="1" stop-color="#231f20"/>
    </linearGradient>
    <linearGradient id="New_Gradient_Swatch_2-2" data-name="New Gradient Swatch 2" x1="114.56" y1="196.67" x2="114.56" y2="23.1" xlink:href="#New_Gradient_Swatch_2"/>
    <linearGradient id="New_Gradient_Swatch_2-3" data-name="New Gradient Swatch 2" x1="-154.43" y1="580.34" x2="-153.21" y2="580.34" gradientTransform="translate(-101075.73 26969.14) rotate(90) scale(174.61 -174.61)" xlink:href="#New_Gradient_Swatch_2"/>
    <linearGradient id="New_Gradient_Swatch_2-4" data-name="New Gradient Swatch 2" x1="404.5" y1="204.58" x2="404.5" y2="3.67" xlink:href="#New_Gradient_Swatch_2"/>
    <linearGradient id="New_Gradient_Swatch_2-5" data-name="New Gradient Swatch 2" x1="564.32" y1="216.43" x2="564.32" y2="3.34" xlink:href="#New_Gradient_Swatch_2"/>
    <linearGradient id="New_Gradient_Swatch_2-6" data-name="New Gradient Swatch 2" x1="564.32" y1="216.43" x2="564.32" y2="3.34" xlink:href="#New_Gradient_Swatch_2"/>
    <clipPath id="clippath-4">
      <polygon class="cls-4" points="613.89 3.34 565.11 94.84 514.78 3.34 459.44 3.34 537.42 149.86 537.4 216.43 592.81 216.43 592.74 148.34 669.21 3.34 613.89 3.34"/>
    </clipPath>
    <linearGradient id="New_Gradient_Swatch_2-7" data-name="New Gradient Swatch 2" x1="617.16" y1="3.34" x2="617.16" y2="216.43" xlink:href="#New_Gradient_Swatch_2"/>
    <linearGradient id="New_Gradient_Swatch_2-8" data-name="New Gradient Swatch 2" x1="835.4" y1="216.12" x2="835.4" y2="3.65" xlink:href="#New_Gradient_Swatch_2"/>
    <linearGradient id="New_Gradient_Swatch_2-9" data-name="New Gradient Swatch 2" x1="735.93" y1="3.65" x2="735.93" y2="216.12" xlink:href="#New_Gradient_Swatch_2"/>
    <linearGradient id="linear-gradient" x1="867.16" y1="72.04" x2="802.24" y2="149.41" gradientUnits="userSpaceOnUse">
      <stop offset="0" stop-color="#4d4d4f"/>
      <stop offset=".02" stop-color="#4d4d4f"/>
      <stop offset=".35" stop-color="#393739"/>
      <stop offset=".73" stop-color="#282526"/>
      <stop offset="1" stop-color="#231f20"/>
    </linearGradient>
    <linearGradient id="linear-gradient-2" x1="825.36" y1="109.89" x2="785.64" y2="109.89" xlink:href="#linear-gradient"/>
    <linearGradient id="New_Gradient_Swatch_2-10" data-name="New Gradient Swatch 2" x1="735.93" y1="216.12" x2="735.93" y2="3.65" xlink:href="#New_Gradient_Swatch_2"/>
    <linearGradient id="New_Gradient_Swatch_2-11" data-name="New Gradient Swatch 2" x1="721.92" y1="73.09" x2="831.65" y2="136.44" xlink:href="#New_Gradient_Swatch_2"/>
  </defs>
  <g>
    <g>
      <path class="cls-10" d="M86.15,164.6c-8.87-5.57-15.97-13.17-21.31-22.8-5.34-9.62-8.01-20.31-8.01-32.07s2.62-22.14,7.86-31.76c5.24-9.62,12.34-17.17,21.31-22.65,8.96-5.47,18.69-8.21,29.17-8.21s20.1,2.74,28.87,8.21c8.76,5.47,15.66,13.02,20.71,22.65,5.03,9.63,7.56,20.21,7.56,31.76s-2.52,22.45-7.56,32.07c-5.04,9.63-11.94,17.23-20.71,22.8-8.77,5.58-18.39,8.36-28.87,8.36s-20.15-2.78-29.02-8.36M114.56,0c-21.56,0-41.06,4.76-58.49,14.29-17.43,9.53-31.13,22.6-41.11,39.21C4.99,70.12,0,88.76,0,109.43s4.99,39.77,14.96,56.69c9.97,16.92,23.67,30.2,41.11,39.82,17.43,9.63,36.92,14.44,58.49,14.44s41.06-4.86,58.49-14.59c17.43-9.73,31.13-23,41.11-39.82,9.97-16.82,14.96-35.66,14.96-56.54s-4.99-39.31-14.96-55.93c-9.97-16.61-23.68-29.68-41.11-39.21C155.62,4.76,136.12,0,114.56,0Z"/>
      <path class="cls-14" d="M86.15,164.6c-8.87-5.57-15.97-13.17-21.31-22.8-5.34-9.62-8.01-20.31-8.01-32.07s2.62-22.14,7.86-31.76c5.24-9.62,12.34-17.17,21.31-22.65,8.96-5.47,18.69-8.21,29.17-8.21s20.1,2.74,28.87,8.21c8.76,5.47,15.66,13.02,20.71,22.65,5.03,9.63,7.56,20.21,7.56,31.76s-2.52,22.45-7.56,32.07c-5.04,9.63-11.94,17.23-20.71,22.8-8.77,5.58-18.39,8.36-28.87,8.36s-20.15-2.78-29.02-8.36M68.49,34.35c-13.73,7.5-24.52,17.8-32.38,30.88-7.86,13.09-11.78,27.77-11.78,44.05s3.93,31.32,11.78,44.65c7.86,13.33,18.65,23.78,32.38,31.36,13.73,7.58,29.08,11.37,46.06,11.37s32.34-3.83,46.06-11.49c13.73-7.66,24.52-18.11,32.38-31.36,7.86-13.25,11.78-28.09,11.78-44.53s-3.93-30.96-11.78-44.05c-7.86-13.09-18.65-23.38-32.38-30.88-13.73-7.5-29.08-11.25-46.06-11.25s-32.34,3.75-46.06,11.25"/>
    </g>
    <g>
      <polygon class="cls-7" points="391.36 131.62 294.93 3.34 246.27 3.34 246.27 216.43 297.96 216.43 297.96 89.06 394.08 216.43 442.44 216.43 442.44 3.67 391.36 3.67 391.36 131.62"/>
      <polyline class="cls-5" points="270.23 3.34 270.23 216.43 246.27 216.43 246.27 3.34 270.23 3.34"/>
      <polygon class="cls-15" points="391.36 3.67 391.36 131.62 417.65 204.58 417.65 3.67 391.36 3.67"/>
      <polygon class="cls-8" points="246.59 3.34 270.23 16.61 294.66 3.34 246.59 3.34"/>
      <polygon class="cls-7" points="246.59 216.43 297.95 216.43 297.95 216.32 270.63 204.58 246.59 216.43"/>
      <polygon class="cls-8" points="391.36 3.67 391.36 3.67 417.65 16.61 442.11 3.67 391.36 3.67"/>
      <polygon class="cls-8" points="297.95 89.18 297.95 89.06 394.08 216.43 417.65 204.58 270.23 16.61 297.95 89.18"/>
    </g>
    <g>
      <g>
        <polygon class="cls-13" points="613.89 3.34 565.11 94.84 514.78 3.34 459.44 3.34 537.42 149.86 537.4 216.43 592.81 216.43 592.74 148.34 669.21 3.34 613.89 3.34"/>
        <g class="cls-9">
          <polygon class="cls-6" points="565.11 94.84 565.11 149.72 490.9 16.38 514.78 3.34 565.11 94.84"/>
        </g>
      </g>
      <polygon class="cls-8" points="613.89 3.34 613.87 3.4 635.74 16.81 669.21 3.34 613.89 3.34"/>
      <polygon class="cls-17" points="635.74 16.81 565.11 149.72 565.11 216.43 592.81 216.43 592.74 148.34 669.21 3.34 635.74 16.81"/>
      <polygon class="cls-8" points="459.44 3.34 490.9 16.38 514.78 3.34 514.78 3.34 459.44 3.34"/>
      <polygon class="cls-7" points="592.81 216.43 565.11 204.43 537.4 216.43 592.81 216.43"/>
    </g>
    <g>
      <polygon class="cls-16" points="814.72 22.07 785.64 216.12 885.16 3.65 885.16 3.65 814.72 22.07"/>
      <polygon class="cls-7" points="686.21 216.12 754.32 195.71 785.64 216.12 686.21 216.12"/>
      <polygon class="cls-12" points="754.32 195.71 785.64 3.65 686.21 216.12 754.32 195.71"/>
      <polygon class="cls-3" points="825.36 168.81 885.16 216.12 885.16 216.12 785.64 3.65 825.36 168.81"/>
      <polygon class="cls-11" points="785.64 216.12 785.64 3.65 825.36 168.81 785.64 216.12"/>
      <polygon class="cls-7" points="785.64 216.12 885.16 216.12 885.16 216.12 825.36 168.81 785.64 216.12"/>
      <polygon class="cls-8" points="686.21 3.65 729.51 59.94 785.64 3.65 686.21 3.65"/>
      <polygon class="cls-1" points="729.51 59.94 785.64 216.12 686.21 3.65 729.51 59.94"/>
      <polygon class="cls-2" points="785.64 3.65 785.64 216.12 729.51 59.94 785.64 3.65"/>
      <polygon class="cls-8" points="785.64 3.65 814.72 22.07 885.16 3.65 885.16 3.65 785.64 3.65"/>
    </g>
    <polygon class="cls-7" points="785.64 3.65 814.72 22.07 809.76 55.14 785.64 3.65"/>
    <polygon class="cls-8" points="754.32 195.71 759.95 161.21 785.64 216.12 754.32 195.71"/>
  </g>
  <path class="cls-7" d="M856.22,270.84h7.7c6.8,0,11.9,5.04,11.9,12.35s-4.87,12.23-11.5,12.23h-8.1v-24.58ZM847.27,263.31v39.65h16.48c12.52,0,21.19-8.16,21.19-19.83s-8.55-19.83-20.85-19.83h-16.82ZM807.28,284.15v-13.42h8.27c4.93,0,7.76,2.21,7.76,6.63s-2.83,6.8-7.76,6.8h-8.27ZM822.69,302.96h10.14l-8.44-13.09c4.82-2.27,7.42-6.68,7.42-12.8,0-8.78-5.89-13.76-16.26-13.76h-17.22v39.65h8.95v-11.33h9.12l6.29,11.33ZM770.69,288.06h-12.52l6.29-15.41,6.23,15.41ZM773.58,295.25l3.12,7.7h9.57l-16.94-39.65h-9.23l-17.22,39.65h9.23l3.12-7.7h18.35ZM705.94,270.84h7.7c6.8,0,11.89,5.04,11.89,12.35s-4.87,12.23-11.5,12.23h-8.1v-24.58ZM696.99,263.31v39.65h16.48c12.52,0,21.19-8.16,21.19-19.83s-8.55-19.83-20.85-19.83h-16.82ZM680.34,302.96v-39.65h-8.5v25.49l-19.26-25.49h-8.16v39.65h8.55v-25.43l19.2,25.43h8.16ZM616.78,288.06h-12.52l6.29-15.41,6.23,15.41ZM619.67,295.25l3.12,7.7h9.57l-16.94-39.65h-9.23l-17.22,39.65h9.23l3.12-7.7h18.35ZM584.89,270.9v-7.59h-33.14v7.59h12.06v32.06h8.95v-32.06h12.12ZM526.15,262.91c-9.18,0-15.35,4.53-15.35,11.73,0,14.05,21.13,9.69,21.13,17.16,0,2.44-2.21,3.79-5.89,3.79-4.19,0-9.97-2.32-14.05-5.95l-3.57,7.31c4.48,3.8,10.99,6.29,17.5,6.29,8.78,0,15.52-4.19,15.52-11.95.06-14.28-21.07-10.2-21.07-17.5,0-2.15,2.04-3.23,5.04-3.23,3.17,0,8.16,1.59,12.35,4.08l3.46-7.42c-3.97-2.61-9.52-4.31-15.07-4.31M477.89,270.9v-7.59h-33.14v7.59h12.06v32.06h8.95v-32.06h12.12ZM432.01,302.96v-39.65h-8.95v16.54h-17.96v-16.54h-8.95v39.65h8.95v-15.63h17.96v15.63h8.95ZM367.21,263.02c-12.01,0-21.13,8.61-21.13,20.05s8.95,20.28,20.79,20.28c5.78,0,11.84-2.78,16.03-7.08l-5.27-5.72c-2.83,2.83-6.74,4.65-10.31,4.65-6.8,0-12.07-5.33-12.07-12.24s5.27-12.18,12.07-12.18c3.68,0,7.59,2.04,10.31,5.16l5.21-6.34c-3.91-4.02-9.91-6.57-15.63-6.57M322.35,288.06h-12.52l6.29-15.41,6.23,15.41ZM325.23,295.25l3.12,7.7h9.57l-16.94-39.65h-9.23l-17.22,39.65h9.23l3.12-7.7h18.35ZM275.5,290.16l14.44-26.85h-9.01l-9.91,17.79-10.14-17.79h-9.01l14.67,27.08v12.58h8.95v-12.8ZM216.82,284.15v-13.42h8.27c4.93,0,7.76,2.21,7.76,6.63s-2.83,6.8-7.76,6.8h-8.27ZM232.22,302.96h10.14l-8.44-13.09c4.82-2.27,7.42-6.68,7.42-12.8,0-8.78-5.89-13.76-16.26-13.76h-17.22v39.65h8.95v-11.33h9.12l6.29,11.33ZM192.29,270.73v-7.42h-30.19v39.65h30.82v-7.42h-21.86v-8.78h19.15v-7.42h-19.15v-8.61h21.24ZM124.71,270.73h7.42c4.98,0,7.82,2.21,7.82,6.63s-2.83,6.8-7.82,6.8h-7.42v-13.42ZM115.76,263.31v39.65h8.95v-11.33h7.87c10.08,0,15.86-5.33,15.86-14.56s-5.78-13.76-15.86-13.76h-16.82ZM99.84,263.31h-8.95v23.05c0,5.72-3.51,9.18-8.84,9.18s-9.06-3.46-9.06-9.18v-23.05h-8.95v23.05c0,10.48,7.02,16.99,18.01,16.99s17.79-6.51,17.79-16.99v-23.05ZM35.27,262.91c-9.18,0-15.35,4.53-15.35,11.73,0,14.05,21.13,9.69,21.13,17.16,0,2.44-2.21,3.79-5.89,3.79-4.19,0-9.97-2.32-14.05-5.95l-3.57,7.31c4.48,3.8,10.99,6.29,17.5,6.29,8.78,0,15.52-4.19,15.52-11.95.06-14.28-21.07-10.2-21.07-17.5,0-2.15,2.04-3.23,5.04-3.23,3.17,0,8.16,1.59,12.35,4.08l3.46-7.42c-3.96-2.61-9.52-4.31-15.07-4.31"/>
</svg>